<svg width="18" height="18" viewBox="0 0 18 18" fill="none" xmlns="http://www.w3.org/2000/svg">
<g id="icon">
<path id="Vector" d="M0.818359 2.32669C0.818359 1.94413 1.12234 1.63635 1.50018 1.63635H2.79279C3.41779 1.63635 3.97177 2.00453 4.23029 2.55681H15.9064C16.6536 2.55681 17.199 3.27591 17.003 4.00652L15.8382 8.38731C15.5968 9.29051 14.7871 9.92044 13.8638 9.92044H5.66779L5.8212 10.7402C5.8837 11.0653 6.16495 11.3011 6.49165 11.3011H14.682C15.0598 11.3011 15.3638 11.6089 15.3638 11.9915C15.3638 12.374 15.0598 12.6818 14.682 12.6818H6.49165C5.5087 12.6818 4.66495 11.9742 4.48313 10.9991L3.01722 3.204C2.99734 3.0947 2.90359 3.01703 2.79279 3.01703H1.50018C1.12234 3.01703 0.818359 2.70926 0.818359 2.32669ZM4.45472 14.9829C4.45472 14.8016 4.48999 14.6221 4.55852 14.4546C4.62705 14.2871 4.7275 14.1349 4.85412 14.0067C4.98075 13.8784 5.13107 13.7767 5.29652 13.7074C5.46196 13.638 5.63928 13.6023 5.81836 13.6023C5.99743 13.6023 6.17476 13.638 6.3402 13.7074C6.50564 13.7767 6.65597 13.8784 6.7826 14.0067C6.90922 14.1349 7.00967 14.2871 7.0782 14.4546C7.14672 14.6221 7.182 14.8016 7.182 14.9829C7.182 15.1643 7.14672 15.3438 7.0782 15.5113C7.00967 15.6788 6.90922 15.831 6.7826 15.9592C6.65597 16.0874 6.50564 16.1891 6.3402 16.2585C6.17476 16.3279 5.99743 16.3636 5.81836 16.3636C5.63928 16.3636 5.46196 16.3279 5.29652 16.2585C5.13107 16.1891 4.98075 16.0874 4.85412 15.9592C4.7275 15.831 4.62705 15.6788 4.55852 15.5113C4.48999 15.3438 4.45472 15.1643 4.45472 14.9829ZM14.0002 13.6023C14.3618 13.6023 14.7087 13.7477 14.9644 14.0067C15.2201 14.2656 15.3638 14.6168 15.3638 14.9829C15.3638 15.3491 15.2201 15.7003 14.9644 15.9592C14.7087 16.2182 14.3618 16.3636 14.0002 16.3636C13.6385 16.3636 13.2917 16.2182 13.0359 15.9592C12.7802 15.7003 12.6365 15.3491 12.6365 14.9829C12.6365 14.6168 12.7802 14.2656 13.0359 14.0067C13.2917 13.7477 13.6385 13.6023 14.0002 13.6023Z" fill="white"/>
</g>
</svg>
